<?xml version="1.0" encoding="UTF-8"?>
<svg version="1.1" xmlns="http://www.w3.org/2000/svg" width="600" height="100">
<path d="M0 0 C2.46949778 -0.00067482 4.93899549 -0.00164633 7.40849304 -0.00289917 C12.55985147 -0.00436637 17.71119245 -0.00225224 22.86254883 0.00244141 C29.45052882 0.00815314 36.0384682 0.00484434 42.62644672 -0.00113106 C47.71632695 -0.00475031 52.80619759 -0.00359206 57.89607811 -0.00100327 C60.3252583 -0.00033855 62.75443938 -0.00114642 65.18361855 -0.00348282 C68.57857181 -0.00603343 71.97345978 -0.00213551 75.3684082 0.00341797 C76.85780411 0.00038162 76.85780411 0.00038162 78.37728882 -0.00271606 C83.49893708 0.01273793 88.49204294 0.25058091 93.57438946 0.89801216 C96.17260219 1.22340778 98.77298479 1.36046106 101.38671875 1.5078125 C112.78072779 2.27580648 124.11366904 3.77372279 135.44921875 5.1328125 C135.44921875 5.7928125 135.44921875 6.4528125 135.44921875 7.1328125 C136.54234375 7.2359375 137.63546875 7.3390625 138.76171875 7.4453125 C142.44921875 8.1328125 142.44921875 8.1328125 144.44921875 9.3203125 C145.98797887 12.10931521 145.21419534 14.13665419 144.44921875 17.1328125 C142.80792107 20.41540786 139.67372888 21.66815825 136.44921875 23.1328125 C133.72091225 23.99568052 130.9815681 24.7186645 128.20703125 25.41796875 C125.73777139 26.05801769 123.35857301 26.79946954 120.94921875 27.6328125 C117.68534393 28.75368054 114.41250486 29.69554914 111.07421875 30.5703125 C106.31681224 31.8376272 101.75551561 33.43168044 97.1484375 35.16015625 C94.51935946 36.10753748 91.88341473 36.91969763 89.19921875 37.6953125 C85.11233692 38.88351137 81.3194241 40.36597962 77.44921875 42.1328125 C84.61140902 42.99608945 91.64910391 43.26730501 98.85888672 43.23046875 C100.50002441 43.22827835 100.50002441 43.22827835 102.17431641 43.2260437 C104.53357271 43.22225883 106.89282624 43.21616489 109.25207138 43.20797729 C112.9947237 43.19512947 116.73734026 43.18867642 120.48001099 43.18383789 C129.10141757 43.17148226 137.72279213 43.14981723 146.34417725 43.12760925 C154.87989002 43.10572844 163.41559288 43.08789778 171.95132828 43.07687378 C175.62259491 43.07043322 179.29380809 43.05792564 182.96505737 43.04516602 C185.23695836 43.04153015 187.50885983 43.03817884 189.78076172 43.03515625 C190.78789215 43.02998993 191.79502258 43.02482361 192.83267212 43.01950073 C199.75119915 43.01899335 206.56330043 43.48515809 213.44921875 44.1328125 C215.50240976 44.28263637 217.5557545 44.43040168 219.609375 44.57421875 C226.96988691 45.13737201 234.29575835 45.94918161 241.62670898 46.80737305 C243.90734851 47.07271266 246.18895238 47.32839905 248.47070312 47.58398438 C249.94147455 47.75462062 251.41218034 47.92582387 252.8828125 48.09765625 C254.19306396 48.248396 255.50331543 48.39913574 256.85327148 48.55444336 C260.2398168 49.09913247 263.2385998 49.94453299 266.44921875 51.1328125 C266.44921875 52.1228125 266.44921875 53.1128125 266.44921875 54.1328125 C259.46028126 53.74623372 252.51813838 53.31302949 245.5760498 52.39587402 C222.13897531 49.31599747 198.26955528 49.9715595 174.67749023 50.00244141 C170.22523202 50.00821352 165.77303313 50.0047953 161.32077694 49.99886894 C157.84883681 49.99525015 154.37691073 49.9964067 150.90497017 49.99899673 C149.26204992 49.99965846 147.61912835 49.99886432 145.97620964 49.99651718 C143.69105513 49.99396038 141.40599698 49.99787022 139.12084961 50.00341797 C137.1821122 50.00461136 137.1821122 50.00461136 135.20420837 50.00582886 C131.21442381 50.14075263 127.40551003 50.61194978 123.44921875 51.1328125 C121.93154682 51.2150032 120.41171831 51.26966951 118.8918457 51.27807617 C118.09353836 51.28445602 117.29523102 51.29083588 116.47273254 51.29740906 C115.6361058 51.29852188 114.79947906 51.2996347 113.9375 51.30078125 C113.04741745 51.30410965 112.1573349 51.30743805 111.24028015 51.31086731 C109.36535148 51.31590372 107.49041394 51.31827666 105.61547852 51.31811523 C102.78711698 51.32029294 99.95915168 51.33845988 97.13085938 51.35742188 C72.13472725 51.43692314 72.13472725 51.43692314 64.44921875 47.1328125 C65.51998449 42.01693176 67.34455201 40.01236311 71.5 37.2109375 C73.75789986 35.96207906 76.03742972 35.05057293 78.44921875 34.1328125 C79.40957031 33.75382812 80.36992187 33.37484375 81.359375 32.984375 C87.6768886 30.52625942 94.01242723 28.21199117 100.45703125 26.109375 C104.57050526 24.76685737 108.66302228 23.36320068 112.7578125 21.96484375 C115.31185054 21.17527901 117.8273617 20.63940861 120.44921875 20.1328125 C122.12462539 19.48842533 123.79105091 18.82034551 125.44921875 18.1328125 C127.44921875 17.46614583 129.44921875 16.79947917 131.44921875 16.1328125 C133.1208507 15.47869565 134.78937077 14.81627932 136.44921875 14.1328125 C129.85785575 11.92929438 123.62159714 10.55820545 116.69921875 10.0078125 C115.33325562 9.88998413 115.33325562 9.88998413 113.93969727 9.76977539 C103.78700444 8.93279008 93.62893445 8.47748472 83.44921875 8.1328125 C82.18787109 8.08769531 80.92652344 8.04257812 79.62695312 7.99609375 C48.6738998 6.90153103 17.66433779 6.41078475 -13.28125 7.9140625 C-18.29189789 8.14766765 -23.28573243 8.17475944 -28.30078125 8.1328125 C-34.17004864 8.0871047 -39.93500033 8.32553836 -45.78125 8.84765625 C-50.84624956 9.23081166 -55.91320706 9.43145879 -60.98828125 9.6328125 C-62.02259277 9.67398193 -63.0569043 9.71515137 -64.12255859 9.75756836 C-66.23192476 9.84120608 -68.34129982 9.92462004 -70.45068359 10.0078125 C-77.92831028 10.30932021 -85.40391225 10.65763437 -92.87939453 11.0078125 C-94.67720929 11.09193617 -96.47506187 11.1752548 -98.27294922 11.2578125 C-111.05430181 11.84272524 -111.05430181 11.84272524 -123.8046875 12.8828125 C-130.74423465 13.51457782 -137.71367723 13.84742448 -144.66943359 14.2578125 C-151.77766897 14.67855429 -158.86834869 15.11705896 -165.94921875 15.88671875 C-170.34268517 16.30231692 -174.74996513 16.51722581 -179.15625 16.75390625 C-182.89797137 17.02494561 -186.59280341 17.53015209 -190.30859375 18.04296875 C-196.23920159 18.85370659 -202.16895709 19.53854904 -208.125 20.1328125 C-208.9496727 20.21519669 -209.7743454 20.29758087 -210.62400818 20.38246155 C-214.01797197 20.71930598 -217.41228705 21.05241919 -220.80688477 21.3828125 C-229.61491102 22.2435262 -238.36538523 23.10709662 -247.07373047 24.72900391 C-249.71601174 25.15974836 -252.31637361 25.3580685 -254.98828125 25.5078125 C-263.49901532 26.12453236 -271.81558414 28.02160407 -280.171875 29.67480469 C-283.12253141 30.24289084 -286.08239145 30.72952793 -289.05078125 31.1953125 C-299.04461208 32.82320279 -308.75521054 35.39513217 -318.45703125 38.265625 C-321.14725892 39.01970397 -323.80412441 39.63062524 -326.55078125 40.1328125 C-326.55078125 39.1428125 -326.55078125 38.1528125 -326.55078125 37.1328125 C-321.06347748 34.17811047 -315.6235963 32.03242984 -309.6875 30.140625 C-307.63721389 29.48187803 -305.59710135 28.79033767 -303.5703125 28.0625 C-297.31936989 25.83296961 -291.34978685 24.51516648 -284.77734375 23.62890625 C-281.59041159 23.13890578 -278.54540853 22.44294827 -275.42578125 21.6328125 C-266.05030723 19.20664952 -256.76989879 17.89955601 -247.1496582 16.95288086 C-241.29050491 16.36052314 -235.49156907 15.55384151 -229.67578125 14.6328125 C-221.01727398 13.27338708 -212.36063829 12.37511869 -203.6328125 11.59765625 C-198.95060133 11.17971213 -194.2829146 10.67155611 -189.61328125 10.1328125 C-174.29070715 8.39087054 -158.94749767 7.05319101 -143.54785156 6.24169922 C-140.21416448 6.05993584 -136.8826242 5.84533578 -133.55078125 5.6328125 C-125.93636517 5.15410658 -118.32088771 4.69717646 -110.70410156 4.2578125 C-108.58775819 4.13495901 -106.47161719 4.00897319 -104.35546875 3.8828125 C-89.13490843 2.99015192 -73.90023308 2.43395842 -58.6640625 1.8828125 C-57.52646484 1.84091797 -56.38886719 1.79902344 -55.21679688 1.75585938 C-53.06323048 1.67684092 -50.90958843 1.59984386 -48.75585938 1.52539062 C-43.74068836 1.34108066 -38.7607392 1.06645758 -33.76171875 0.62353516 C-22.52452563 -0.18624839 -11.26012391 -0.0108824 0 0 Z " fill="#89BD9E" transform="translate(331.55078125,21.8671875)"/>
</svg>
